<svg width="97" height="88" viewBox="0 0 97 88" fill="none" xmlns="http://www.w3.org/2000/svg">
  <g clip-path="url(#clip0)">
    <path
      d="M34.0688 10.0945L33.4893 10.9155L24.2709 24.1295L24.2605 24.1597C22.8497 26.1173 23.0398 28.8131 24.7349 30.537L24.7541 30.5762L24.7843 30.5866L34.429 39.1219C34.4443 39.1387 34.463 39.1546 34.4783 39.1714C35.0248 39.7123 35.69 40.113 36.3782 40.3489C37.2513 40.6502 38.1912 40.7027 39.0925 40.5006C39.9938 40.2985 40.8209 39.8498 41.4812 39.2046C43.4332 37.2852 43.4856 34.1169 41.5641 32.1628L41.5147 32.1133L41.4864 32.1036L40.958 31.6267C40.9492 31.6279 40.9376 31.6155 40.9288 31.6167L35.2304 26.7356L42.0163 16.961L42.5553 16.1597L34.8916 10.6712L34.0688 10.0945ZM34.5649 12.8627L39.8216 16.6379L38.7132 18.2309L33.4575 14.456L34.5649 12.8627ZM32.302 16.0971L37.5578 19.872L33.0664 26.3231L32.5768 27.076L33.2318 27.6626L38.7546 32.3834C36.9159 33.2692 35.4385 34.7599 34.5704 36.6049L28.6191 31.3099C29.0166 30.7888 29.3273 30.2071 29.5393 29.5871C30.3915 27.1087 29.4854 24.463 27.5105 22.9399L32.302 16.0971ZM26.393 24.5624C27.0295 25.0735 27.4923 25.7684 27.718 26.5522C27.9437 27.3359 27.9213 28.1702 27.6539 28.9407C27.5225 29.3229 27.33 29.6558 27.1025 29.9681L26.1642 29.154C25.6657 28.6515 25.3627 27.9882 25.3096 27.283C25.2564 26.5777 25.4566 25.8766 25.8742 25.3053L25.8842 25.2761L26.393 24.5624ZM40.3655 33.8249C40.815 34.4016 41.0358 35.1235 40.9858 35.8526C40.9357 36.5817 40.6183 37.2667 40.0942 37.7768C39.6976 38.1658 39.2 38.4365 38.6577 38.5584C38.1153 38.6803 37.5496 38.6486 37.0243 38.4669C36.7047 38.3498 36.4068 38.1808 36.1424 37.9667C36.4985 37.009 37.0615 36.1414 37.7914 35.4255C38.5213 34.7097 39.4002 34.1632 40.3655 33.8249Z"
      fill="#48BB78"/>
  </g>
  <g clip-path="url(#clip1)">
    <path
      d="M20.4578 56.727C19.2455 57.2772 18.4012 58.3906 18.186 59.705L17.3769 64.6166C17.282 65.1955 17.3618 65.7895 17.6061 66.323L20.3381 72.3257C20.5195 72.7286 20.8307 73.0595 21.222 73.2656C21.6134 73.4717 22.0626 73.5412 22.4981 73.463L25.1228 72.9901C25.6627 73.7276 26.4402 74.2573 27.3249 74.4902C28.2095 74.7231 29.1475 74.6451 29.9814 74.2694C31.6619 73.5067 32.5365 71.7095 32.2323 69.9683L40.682 66.1338C41.7956 67.5076 43.7267 68.0317 45.4072 67.2691C47.0877 66.5064 47.9623 64.7092 47.6581 62.968L48.7071 62.492C49.6998 62.0415 50.1483 60.8475 49.6971 59.8563L48.1894 56.5437C47.8209 55.7365 47.1929 55.0753 46.4051 54.6653C45.6172 54.2553 44.7148 54.12 43.8411 54.2808L38.3677 55.2615L32.9033 52.6513C32.3788 52.3977 31.8049 52.2625 31.2222 52.2553C30.6396 52.248 30.0625 52.3688 29.5318 52.6092L20.4578 56.727ZM21.2826 58.5392L25.2806 56.7248L26.9301 60.3491L19.5575 63.6948L20.1535 60.042L20.1408 60.0139C20.1929 59.6927 20.3246 59.3896 20.5239 59.1322C20.7231 58.8747 20.9836 58.671 21.2817 58.5396L21.2826 58.5392ZM27.0954 55.9013L30.3566 54.4213C30.8947 54.1772 31.51 54.1844 32.0423 54.4424L35.8907 56.2828L28.7449 59.5255L27.0954 55.9013ZM19.5883 65.8673L38.5303 57.2713L44.2143 56.229C44.6501 56.1483 45.1005 56.2168 45.4925 56.4233C45.8845 56.6299 46.1953 56.9625 46.3746 57.3673L47.8823 60.6798L46.8333 61.1559C45.7197 59.782 43.7886 59.2579 42.1081 60.0205C40.4276 60.7832 39.553 62.5805 39.8572 64.3216L31.4075 68.1561C30.2939 66.7823 28.3628 66.2582 26.6823 67.0208C25.0734 67.7509 24.2056 69.426 24.3982 71.0976L22.1534 71.503L19.5883 65.8673ZM27.5071 68.833C28.5206 68.373 29.686 68.8095 30.1466 69.8215C30.6073 70.8336 30.1702 71.9973 29.1566 72.4572C28.143 72.9172 26.9777 72.4807 26.517 71.4687C26.0564 70.4566 26.4935 69.2929 27.5071 68.833ZM42.9329 61.8327C43.9465 61.3727 45.1118 61.8092 45.5725 62.8212C46.0331 63.8333 45.596 64.997 44.5824 65.4569C43.5689 65.9169 42.4035 65.4804 41.9429 64.4684C41.4822 63.4563 41.9193 62.2926 42.9329 61.8327Z"
      fill="#48BB78"/>
  </g>
  <g clip-path="url(#clip2)">
    <path
      d="M63.1604 32.4075C62.8774 32.3352 62.701 32.3155 62.701 32.3155L61.6846 32.1381L61.5368 33.1611C61.5368 33.1611 61.1793 35.4204 62.3088 37.4613C58.9958 37.0941 55.8138 39.0468 54.9495 42.2404C54.017 45.6858 54.815 48.8332 56.1176 51.1579C56.7004 52.2137 57.4414 53.1744 58.3149 54.0066C59.0962 54.7401 59.8549 55.2593 60.6593 55.4764C61.1857 55.6185 61.721 55.666 62.2283 55.6421C62.5337 55.6276 62.8127 55.7029 63.0692 55.869C63.4953 56.1448 63.9818 56.373 64.5081 56.5151C65.3799 56.7503 66.3175 56.6085 67.3763 56.2901C68.4341 55.9714 69.5892 55.446 70.7375 54.7166C73.036 53.2626 75.295 50.9928 76.1178 47.9529C77.0776 44.4067 74.7927 40.7333 71.1133 39.7404C70.1251 39.4737 69.146 39.4672 68.2062 39.6322C68.2094 39.6052 68.2033 39.5551 68.2089 39.504C69.3953 37.0736 71.4448 36.6081 71.4448 36.6081L70.9377 34.6671C70.9377 34.6671 69.3604 35.1157 67.9012 36.5859C67.703 35.9828 67.4107 35.4147 67.0352 34.9026C65.8374 33.2742 64.0044 32.627 63.1604 32.4075ZM63.5402 34.7007C64.1777 34.981 64.9423 35.4214 65.4253 36.0785C65.9184 36.7477 66.1407 37.5933 66.2145 38.2895C65.5723 38.011 64.8 37.5418 64.3069 36.8726C63.8215 36.2097 63.615 35.3931 63.5402 34.7007ZM62.8956 39.5846C64.1465 39.9222 65.1367 40.6771 65.7962 41.6241L66.2893 42.3046L67.0586 41.9648C68.1636 41.4488 69.4163 41.3414 70.5932 41.6619C73.2921 42.3902 74.8547 44.9903 74.1934 47.4336C73.5485 49.8163 71.6749 51.7798 69.6745 53.0442C68.7808 53.6121 67.8139 54.056 66.8003 54.3634C65.9414 54.6183 65.2168 54.6444 65.0282 54.5935C64.7126 54.5083 64.4306 54.3714 64.1662 54.2001C63.5594 53.8068 62.8442 53.6138 62.1216 53.6483C61.8077 53.6636 61.495 53.64 61.1794 53.5549C60.9196 53.4848 60.2963 53.1557 59.6718 52.5676C59.048 51.9807 58.3851 51.1533 57.836 50.1721C56.7382 48.2088 56.0937 45.6421 56.8739 42.7597C57.5351 40.3165 60.1966 38.8563 62.8956 39.5846Z"
      fill="#48BB78"/>
  </g>
  <defs>
    <clipPath id="clip0">
      <rect width="31.89" height="31.8529" fill="white"
            transform="matrix(0.945952 0.324306 -0.325163 0.945658 25.3475 5)"/>
    </clipPath>
    <clipPath id="clip1">
      <rect width="31.8869" height="31.856" fill="white"
            transform="matrix(0.910621 -0.413243 0.414254 0.910161 12 54.0059)"/>
    </clipPath>
    <clipPath id="clip2">
      <rect width="31.8917" height="31.8511" fill="white"
            transform="matrix(0.965463 0.260539 -0.261256 0.965269 54.2097 25.9002)"/>
    </clipPath>
  </defs>
</svg>
